P3
# CREATOR: GIMP PNM Filter Version 1.1
50 50
255
255
255
255
255
255
255
255
255
255
255
255
255
255
255
255
255
255
255
255
255
255
255
255
255
255
255
255
255
255
255
255
255
255
255
255
255
255
255
255
255
255
255
255
255
255
255
255
255
255
255
255
255
255
255
255
255
255
255
255
255
255
255
255
255
255
255
255
255
255
255
255
255
255
255
255
255
255
255
255
255
255
255
255
255
255
255
255
255
255
255
255
255
255
255
255
255
255
255
255
255
255
255
255
255
255
255
255
255
255
255
255
255
255
255
255
255
255
255
255
255
255
255
255
255
255
255
255
255
255
255
255
255
255
255
255
255
255
255
255
255
255
255
255
255
255
255
255
255
255
255
0
0
0
0
0
0
0
0
0
0
0
0
0
0
0
0
0
0
0
0
0
0
0
0
0
0
0
0
0
0
0
0
0
0
0
0
0
0
0
0
0
0
0
0
0
0
0
0
0
0
0
0
0
0
0
0
0
0
0
0
0
0
0
0
0
0
0
0
0
0
0
0
0
0
0
0
0
0
0
0
0
0
0
0
0
0
0
0
0
0
0
0
0
0
0
0
0
0
0
0
0
0
0
0
0
0
0
0
0
0
0
0
0
0
0
0
0
0
0
0
0
0
0
0
0
0
0
0
0
0
0
0
0
0
0
0
0
0
0
0
0
0
0
0
0
0
0
0
0
0
0
0
0
0
0
0
0
0
0
0
0
0
0
0
0
0
0
0
0
0
0
0
0
0
0
0
0
0
0
0
0
0
0
0
0
0
0
0
0
0
0
0
0
0
0
0
0
0
0
0
0
0
0
0
0
0
0
0
0
0
0
0
0
0
0
0
0
0
0
0
0
0
0
0
0
0
0
0
0
0
0
0
0
0
0
0
0
0
0
0
0
0
0
0
0
0
0
0
0
0
0
0
0
0
0
0
0
0
0
0
0
0
0
0
0
0
0
0
0
0
0
0
0
0
0
0
0
0
0
0
0
0
0
0
0
0
0
0
0
0
0
0
0
0
0
0
0
0
0
0
0
0
0
0
0
0
0
0
0
0
0
0
0
0
0
0
0
0
0
0
0
0
0
0
0
0
0
0
0
0
0
0
0
0
0
0
0
0
0
0
0
0
0
0
0
11
11
11
43
42
41
17
17
16
0
0
0
0
0
0
0
0
0
0
0
0
0
0
0
0
0
0
0
0
0
0
0
0
0
0
0
0
0
0
0
0
0
0
0
0
0
0
0
0
0
0
0
0
0
0
0
0
0
0
0
0
0
0
0
0
0
0
0
0
0
0
0
0
0
0
0
0
0
0
0
0
0
0
0
0
0
0
0
0
0
0
0
0
0
0
0
0
0
0
0
0
0
0
0
0
0
0
0
0
0
0
0
0
0
0
0
0
0
0
0
0
0
0
0
0
0
0
0
0
0
0
0
0
0
0
0
0
0
0
0
0
0
0
0
0
0
0
0
0
0
46
47
47
119
121
124
97
98
97
26
26
24
26
26
24
0
0
0
0
0
0
0
0
0
0
0
0
0
0
0
0
0
0
0
0
0
0
0
0
0
0
0
0
0
0
0
0
0
0
0
0
0
0
0
0
0
0
0
0
0
0
0
0
0
0
0
0
0
0
0
0
0
0
0
0
0
0
0
0
0
0
0
0
0
0
0
0
0
0
0
0
0
0
0
0
0
0
0
0
0
0
0
0
0
0
0
0
0
0
0
0
0
0
0
0
0
0
0
0
0
0
0
0
0
0
0
0
0
0
0
0
0
0
0
0
0
0
0
0
0
0
0
0
0
0
0
0
0
0
0
46
47
47
119
121
124
97
98
97
26
26
24
26
26
24
0
0
0
0
0
0
0
0
0
0
0
0
0
0
0
0
0
0
0
0
0
0
0
0
0
0
0
0
0
0
0
0
0
0
0
0
0
0
0
0
0
0
0
0
0
0
0
0
0
0
0
0
0
0
0
0
0
0
0
0
0
0
0
0
0
0
0
0
0
0
0
0
0
0
0
0
0
0
0
0
0
0
0
0
0
0
0
0
0
0
0
0
0
0
0
0
0
0
0
0
0
0
0
0
0
0
0
0
0
0
0
0
0
0
0
0
0
0
0
0
0
0
0
0
0
0
0
0
0
0
0
0
20
19
20
101
102
104
124
127
131
120
122
125
116
116
113
116
116
113
50
49
46
0
0
0
0
0
0
0
0
0
0
0
0
0
0
0
0
0
0
0
0
0
0
0
0
0
0
0
0
0
0
0
0
0
0
0
0
0
0
0
0
0
0
0
0
0
0
0
0
0
0
0
0
0
0
0
0
0
0
0
0
0
0
0
0
0
0
0
0
0
0
0
0
0
0
0
0
0
0
0
0
0
0
0
0
0
0
0
0
0
0
0
0
0
0
0
0
0
0
0
0
0
0
0
0
0
0
0
0
0
0
0
0
0
0
0
0
0
0
0
0
0
0
0
3
3
3
3
3
3
68
67
70
121
123
127
111
115
117
109
111
115
125
126
128
125
126
128
146
147
141
78
79
75
3
2
3
0
0
0
0
0
0
0
0
0
0
0
0
0
0
0
0
0
0
0
0
0
0
0
0
0
0
0
0
0
0
0
0
0
0
0
0
0
0
0
0
0
0
0
0
0
0
0
0
0
0
0
0
0
0
0
0
0
0
0
0
0
0
0
0
0
0
0
0
0
0
0
0
0
0
0
0
0
0
0
0
0
0
0
0
0
0
0
0
0
0
0
0
0
0
0
0
0
0
0
0
0
0
0
0
0
0
0
0
0
0
0
0
0
0
0
0
0
34
34
34
34
34
34
108
109
112
115
116
120
113
116
118
119
122
125
106
109
114
106
109
114
114
117
118
162
161
156
111
108
102
15
15
13
0
0
0
0
0
0
0
0
0
0
0
0
0
0
0
0
0
0
0
0
0
0
0
0
0
0
0
0
0
0
0
0
0
0
0
0
0
0
0
0
0
0
0
0
0
0
0
0
0
0
0
0
0
0
0
0
0
0
0
0
0
0
0
0
0
0
0
0
0
0
0
0
0
0
0
0
0
0
0
0
0
0
0
0
0
0
0
0
0
0
0
0
0
0
0
0
0
0
0
0
0
0
0
0
0
0
0
0
0
0
0
12
12
12
85
86
87
85
86
87
115
116
120
108
109
113
110
112
116
113
115
120
116
118
123
116
118
123
100
102
106
102
103
106
172
170
165
145
141
135
33
32
30
33
32
30
0
0
0
0
0
0
0
0
0
0
0
0
0
0
0
0
0
0
0
0
0
0
0
0
0
0
0
0
0
0
0
0
0
0
0
0
0
0
0
0
0
0
0
0
0
0
0
0
0
0
0
0
0
0
0
0
0
0
0
0
0
0
0
0
0
0
0
0
0
0
0
0
0
0
0
0
0
0
0
0
0
0
0
0
0
0
0
0
0
0
0
0
0
0
0
0
0
0
0
0
0
0
0
0
0
55
55
58
111
112
115
111
112
115
107
110
111
99
102
105
102
104
109
112
113
118
125
126
130
125
126
130
121
122
126
93
96
102
96
99
103
170
169
163
170
167
159
170
167
159
58
58
56
0
0
0
0
0
0
1
1
1
0
0
0
0
0
0
0
0
0
0
0
0
0
0
0
0
0
0
0
0
0
0
0
0
0
0
0
0
0
0
0
0
0
0
0
0
0
0
0
0
0
0
0
0
0
0
0
0
0
0
0
0
0
0
0
0
0
0
0
0
0
0
0
0
0
0
0
0
0
0
0
0
0
0
0
0
0
0
0
0
0
0
0
0
0
0
0
0
0
0
0
0
0
55
55
58
111
112
115
111
112
115
107
110
111
99
102
105
102
104
109
112
113
118
125
126
130
125
126
130
121
122
126
93
96
102
96
99
103
170
169
163
170
167
159
170
167
159
58
58
56
0
0
0
0
0
0
1
1
1
0
0
0
0
0
0
0
0
0
0
0
0
0
0
0
0
0
0
0
0
0
0
0
0
0
0
0
0
0
0
0
0
0
0
0
0
0
0
0
0
0
0
0
0
0
0
0
0
0
0
0
0
0
0
0
0
0
0
0
0
0
0
0
0
0
0
0
0
0
0
0
0
0
0
0
0
0
0
0
0
0
0
0
0
0
0
0
0
0
0
26
26
26
99
100
102
110
111
114
110
111
114
95
96
99
93
96
100
105
107
112
117
119
124
121
122
126
121
122
126
121
123
127
116
120
122
92
95
100
86
89
93
162
163
157
162
163
157
197
195
183
87
87
81
5
5
5
0
0
0
1
1
1
1
1
1
0
0
0
0
0
0
0
0
0
0
0
0
0
0
0
0
0
0
0
0
0
0
0
0
0
0
0
0
0
0
0
0
0
0
0
0
0
0
0
0
0
0
0
0
0
0
0
0
0
0
0
0
0
0
0
0
0
0
0
0
0
0
0
0
0
0
0
0
0
0
0
0
0
0
0
0
0
0
0
0
0
3
3
3
67
68
69
106
107
110
100
100
104
100
100
104
92
93
97
98
100
104
110
111
117
115
117
121
114
117
120
114
117
120
112
114
119
114
117
118
111
114
116
87
90
95
81
82
86
81
82
86
152
152
146
209
206
193
116
115
109
17
17
16
0
0
0
0
0
0
1
1
1
0
0
0
0
0
0
0
0
0
0
0
0
0
0
0
0
0
0
0
0
0
0
0
0
0
0
0
0
0
0
0
0
0
0
0
0
0
0
0
0
0
0
0
0
0
0
0
0
0
0
0
0
0
0
0
0
0
0
0
0
0
0
0
0
0
0
0
0
0
0
0
0
0
0
0
0
0
0
17
17
17
90
91
94
103
105
109
93
94
98
93
94
98
92
93
96
102
104
108
110
111
116
109
109
113
106
109
111
106
109
111
104
106
110
108
109
114
112
115
116
109
109
114
92
91
97
92
91
97
81
82
86
140
140
136
209
207
195
139
139
131
32
32
32
32
32
32
0
0
0
0
0
0
2
2
1
2
2
2
2
2
1
2
2
1
1
1
1
0
0
0
0
0
0
0
0
0
0
0
0
0
0
0
0
0
0
0
0
0
0
0
0
0
0
0
0
0
0
0
0
0
0
0
0
0
0
0
0
0
0
0
0
0
0
0
0
0
0
0
0
0
0
0
0
0
0
0
0
41
41
43
98
98
103
98
100
104
89
90
95
89
90
95
93
95
98
103
105
108
107
107
111
102
103
106
99
100
103
99
100
103
99
99
103
100
101
104
105
104
109
112
113
119
114
115
119
114
115
119
96
99
103
81
85
89
135
135
132
199
196
186
160
158
150
160
158
150
58
58
56
3
3
3
0
0
0
0
0
0
0
0
0
0
0
0
0
0
0
0
0
0
1
1
1
1
1
1
0
0
0
0
0
0
0
0
0
0
0
0
0
0
0
0
0
0
0
0
0
0
0
0
0
0
0
0
0
0
0
0
0
0
0
0
0
0
0
0
0
0
0
0
0
0
0
0
3
3
3
70
72
72
101
102
108
90
92
97
90
91
95
90
91
95
98
100
103
100
102
105
101
102
103
98
98
99
92
92
96
92
92
96
93
94
97
94
94
97
96
96
101
108
110
113
118
120
125
118
120
125
114
117
120
98
101
105
85
88
93
132
132
129
191
188
178
191
188
178
172
170
162
111
111
105
90
89
85
71
70
67
44
44
42
44
44
42
23
22
21
5
6
6
0
0
0
0
0
0
0
0
0
0
0
0
1
1
1
0
0
0
0
0
0
0
0
0
0
0
0
0
0
0
0
0
0
0
0
0
0
0
0
0
0
0
0
0
0
0
0
0
0
0
0
0
0
0
19
19
19
87
88
90
98
100
103
90
92
94
93
95
98
93
95
98
100
101
104
99
98
102
93
94
99
91
92
94
91
91
95
91
91
95
91
94
96
92
92
95
91
92
95
103
104
107
115
117
122
115
117
122
119
122
125
118
119
123
102
104
108
95
97
101
122
122
120
122
122
120
154
153
147
172
170
163
183
182
172
175
174
165
152
151
143
152
151
143
136
135
129
119
118
114
84
84
82
36
37
38
5
5
5
5
5
5
0
0
0
0
0
0
1
1
1
0
0
0
0
0
0
0
0
0
0
0
0
0
0
0
0
0
0
0
0
0
0
0
0
0
0
0
0
0
0
0
0
0
19
19
19
87
88
90
98
100
103
90
92
94
93
95
98
93
95
98
100
101
104
99
98
102
93
94
99
91
92
94
91
91
95
91
91
95
91
94
96
92
92
95
91
92
95
103
104
107
115
117
122
115
117
122
119
122
125
118
119
123
102
104
108
95
97
101
122
122
120
122
122
120
154
153
147
172
170
163
183
182
172
175
174
165
152
151
143
152
151
143
136
135
129
119
118
114
84
84
82
36
37
38
5
5
5
5
5
5
0
0
0
0
0
0
1
1
1
0
0
0
0
0
0
0
0
0
0
0
0
0
0
0
0
0
0
0
0
0
0
0
0
0
0
0
0
0
0
0
0
0
46
46
45
94
94
97
94
95
98
91
92
94
94
94
98
94
94
98
96
96
101
94
94
99
90
93
96
87
90
93
89
90
95
89
90
95
88
91
94
87
87
91
92
93
96
102
104
106
109
110
113
109
110
113
116
118
123
125
127
131
122
123
125
108
108
112
94
95
101
94
95
101
95
97
98
104
103
106
117
117
117
120
120
121
119
119
121
119
119
121
123
124
122
128
128
128
124
124
128
98
100
105
67
68
69
67
68
69
30
30
30
2
2
2
0
0
0
1
1
1
0
0
0
0
0
0
0
0
0
0
0
0
0
0
0
0
0
0
0
0
0
0
0
0
4
4
4
4
4
4
68
69
71
99
100
104
91
93
96
87
89
90
92
93
95
92
93
95
91
94
98
88
91
93
87
88
90
87
89
92
87
88
95
87
88
95
87
90
93
89
90
93
97
97
100
104
105
108
108
108
114
108
108
114
111
111
117
119
120
123
120
123
124
114
116
118
105
108
112
105
108
112
95
97
102
89
90
93
81
82
86
81
81
87
81
82
86
81
82
86
75
77
79
75
76
79
88
89
94
102
104
109
107
107
110
107
107
110
91
92
94
65
66
69
25
25
26
0
0
0
0
0
0
0
0
0
0
0
0
0
0
0
0
0
0
0
0
0
0
0
0
0
0
0
20
21
21
20
21
21
82
82
86
96
97
101
86
87
90
90
91
92
95
97
100
95
97
100
92
93
98
87
87
90
84
85
87
85
88
91
86
88
91
86
88
91
88
89
93
92
92
93
97
97
100
101
102
106
105
107
110
105
107
110
104
104
108
102
103
106
106
108
110
111
111
114
114
114
117
114
114
117
108
112
113
104
107
108
102
102
105
97
98
101
91
94
97
91
94
97
84
86
88
81
81
86
84
84
87
89
92
95
96
96
100
96
96
100
102
101
106
109
111
115
104
105
108
70
71
72
20
21
21
20
21
21
0
0
0
0
0
0
0
0
0
0
0
0
0
0
0
0
0
0
45
45
46
45
45
46
91
91
95
89
89
93
85
84
87
97
97
101
99
101
103
99
101
103
91
91
94
85
84
88
86
88
89
88
89
90
86
88
90
86
88
90
89
91
94
91
93
94
95
96
98
100
102
104
95
96
98
95
96
98
90
91
95
92
92
96
95
95
97
103
103
106
108
108
111
108
108
111
107
110
114
109
112
115
112
112
117
108
108
114
103
105
108
103
105
108
95
97
100
91
91
93
88
90
90
86
88
91
92
92
98
92
92
98
100
100
103
105
107
111
123
126
129
126
129
131
101
104
106
101
104
106
0
0
0
0
0
0
0
0
0
0
0
0
0
0
0
5
5
5
67
66
69
67
66
69
95
95
99
85
85
89
88
88
90
99
99
103
99
101
103
99
101
103
90
94
95
89
89
92
89
90
92
85
85
88
86
89
90
86
89
90
93
97
97
97
101
103
97
98
100
94
94
97
89
90
93
89
90
93
85
89
91
86
88
91
91
91
94
93
95
98
97
99
101
97
99
101
99
101
105
109
110
113
117
119
123
115
116
121
104
106
109
104
106
109
100
103
106
99
101
104
94
95
98
91
92
96
93
93
99
93
93
99
101
101
106
107
108
111
106
108
112
110
110
114
118
118
124
118
118
124
0
0
0
0
0
0
0
0
0
0
0
0
0
0
0
5
5
5
67
66
69
67
66
69
95
95
99
85
85
89
88
88
90
99
99
103
99
101
103
99
101
103
90
94
95
89
89
92
89
90
92
85
85
88
86
89
90
86
89
90
93
97
97
97
101
103
97
98
100
94
94
97
89
90
93
89
90
93
85
89
91
86
88
91
91
91
94
93
95
98
97
99
101
97
99
101
99
101
105
109
110
113
117
119
123
115
116
121
104
106
109
104
106
109
100
103
106
99
101
104
94
95
98
91
92
96
93
93
99
93
93
99
101
101
106
107
108
111
106
108
112
110
110
114
118
118
124
118
118
124
0
0
0
0
0
0
0
0
0
0
0
0
0
0
0
26
26
25
83
83
86
83
83
86
92
94
95
85
87
89
94
97
100
101
102
105
96
97
101
96
97
101
91
94
97
94
95
98
90
92
93
84
87
89
94
96
98
94
96
98
104
106
108
102
104
106
93
95
96
87
88
89
84
86
87
84
86
87
83
85
87
81
85
86
86
88
90
90
91
94
92
94
97
92
94
97
99
101
103
108
109
113
117
118
123
109
111
115
93
95
98
93
95
98
96
99
100
98
101
104
94
95
99
94
94
98
96
98
102
96
98
102
105
105
111
104
105
109
100
100
103
104
105
107
91
91
94
91
91
94
0
0
0
0
0
0
0
0
0
0
0
0
0
0
0
35
35
36
87
88
91
87
88
91
88
90
94
89
90
94
99
101
104
101
102
105
95
95
99
95
95
99
95
96
100
97
98
101
92
93
96
96
98
98
107
108
110
107
108
110
109
108
110
95
96
97
84
86
87
83
85
87
85
87
90
85
87
90
83
84
86
79
82
84
83
86
87
92
93
94
97
99
102
97
99
102
105
105
108
105
105
108
105
105
109
97
98
102
84
85
88
84
85
88
83
84
85
88
87
91
86
87
91
90
91
95
98
100
104
98
100
104
100
102
105
97
98
102
99
100
104
103
103
106
57
57
58
57
57
58
0
0
0
0
0
0
0
0
0
0
0
0
0
0
0
24
24
25
79
80
82
79
80
82
90
90
92
93
93
97
98
100
104
98
101
104
101
100
103
101
100
103
98
99
102
97
97
101
101
101
105
106
107
110
107
107
109
107
107
109
104
104
104
92
93
95
81
84
85
78
81
81
80
81
82
80
81
82
75
77
79
74
75
77
79
80
81
89
90
92
99
102
104
99
102
104
105
106
110
99
100
103
93
94
98
91
92
96
83
84
89
83
84
89
75
75
77
75
74
79
81
81
85
88
89
93
95
95
98
95
95
98
88
89
92
85
85
89
96
96
100
82
83
86
16
16
17
16
16
17
0
0
0
0
0
0
0
0
0
0
0
0
0
0
0
16
16
16
74
75
77
74
75
77
94
96
98
96
99
102
99
102
105
99
100
104
98
100
102
98
100
102
98
99
102
99
101
103
102
105
106
106
107
111
106
105
110
106
105
110
99
100
101
89
91
92
80
81
83
75
78
79
73
75
76
73
75
76
72
72
75
72
72
74
76
77
79
83
85
88
91
93
97
91
93
97
93
94
98
90
92
94
88
89
92
87
87
90
81
82
86
81
82
86
76
76
79
75
76
78
82
82
85
88
89
93
91
92
94
91
92
94
81
81
83
80
81
84
86
88
90
45
45
46
0
0
0
0
0
0
0
0
0
0
0
0
0
0
0
0
0
0
0
0
0
9
10
9
73
73
75
73
73
75
101
100
104
99
101
104
100
102
105
104
104
108
103
104
107
103
104
107
103
103
105
104
105
109
105
109
111
105
106
109
101
102
104
101
102
104
95
94
97
87
86
87
78
79
80
74
76
79
71
73
75
71
73
75
71
73
75
73
75
77
76
78
80
82
85
87
90
92
94
90
92
94
87
88
91
87
88
91
86
87
90
81
81
82
77
78
81
77
78
81
80
80
83
81
82
82
86
88
90
91
93
96
86
88
92
86
88
92
78
79
82
83
85
89
72
73
76
11
11
11
0
0
0
0
0
0
0
0
0
0
0
0
0
0
0
0
0
0
0
0
0
9
10
9
73
73
75
73
73
75
101
100
104
99
101
104
100
102
105
104
104
108
103
104
107
103
104
107
103
103
105
104
105
109
105
109
111
105
106
109
101
102
104
101
102
104
95
94
97
87
86
87
78
79
80
74
76
79
71
73
75
71
73
75
71
73
75
73
75
77
76
78
80
82
85
87
90
92
94
90
92
94
87
88
91
87
88
91
86
87
90
81
81
82
77
78
81
77
78
81
80
80
83
81
82
82
86
88
90
91
93
96
86
88
92
86
88
92
78
79
82
83
85
89
72
73
76
11
11
11
0
0
0
0
0
0
0
0
0
0
0
0
0
0
0
0
0
0
0
0
0
3
3
4
70
69
73
70
69
73
106
107
109
104
105
108
104
103
107
104
105
110
106
106
110
106
106
110
105
105
109
104
105
109
107
108
113
103
105
108
92
96
97
92
96
97
87
90
90
85
85
87
80
80
82
74
74
77
74
76
78
74
76
78
77
77
81
75
76
79
75
78
79
84
86
87
90
91
93
90
91
93
86
86
89
83
83
86
85
85
87
84
84
86
78
80
82
78
80
82
78
78
82
83
84
86
87
88
91
89
90
92
86
86
90
86
86
90
87
87
90
86
87
91
39
37
39
0
0
0
0
0
0
0
0
0
0
0
0
0
0
0
0
0
0
0
0
0
0
0
0
1
1
0
60
61
63
60
61
63
104
107
110
103
105
108
104
105
109
104
106
109
103
105
109
103
105
109
105
107
110
107
109
112
106
108
112
99
101
103
90
93
95
90
93
95
87
88
89
86
88
90
81
84
85
78
79
80
81
82
84
81
82
84
82
83
85
79
79
81
78
78
82
84
85
88
85
87
89
85
87
89
82
84
86
81
82
85
81
82
84
81
82
86
82
82
85
82
82
85
83
83
84
89
91
93
89
90
94
83
83
86
82
81
86
82
81
86
94
94
99
70
71
73
7
7
7
0
0
0
0
0
0
0
0
0
0
0
0
0
0
0
0
0
0
0
0
0
0
0
0
0
0
0
33
34
33
33
34
33
98
98
102
108
110
113
106
108
111
110
112
115
109
109
112
109
109
112
107
109
113
111
111
115
103
104
108
94
96
99
90
92
93
90
92
93
88
89
91
87
89
91
86
89
91
88
89
91
87
88
89
87
88
89
83
84
86
83
85
87
87
87
91
89
88
92
84
85
88
84
85
88
82
84
84
84
86
87
81
83
84
79
80
84
83
83
86
83
83
86
86
87
88
89
89
91
87
88
91
81
83
87
89
90
94
89
90
94
79
80
83
26
26
28
0
0
0
0
0
0
0
0
0
0
0
0
1
1
1
1
1
1
0
0
0
0
0
0
0
0
0
0
0
0
5
4
5
5
4
5
73
73
75
113
113
117
113
116
118
116
118
120
119
118
121
119
118
121
112
114
118
103
104
108
98
100
103
95
96
98
89
91
92
89
91
92
88
90
91
91
92
94
95
95
98
92
94
97
88
90
90
88
90
90
88
89
90
89
90
94
90
89
94
88
89
90
85
85
89
85
85
89
83
86
88
82
85
87
86
87
90
88
89
91
85
86
89
85
86
89
87
87
92
86
89
91
89
90
93
92
93
97
72
74
76
72
74
76
26
27
27
0
0
0
0
0
0
0
0
0
0
0
0
0
0
0
0
0
0
0
0
0
0
0
0
0
0
0
0
0
0
0
0
0
0
0
0
0
0
0
33
33
33
105
105
108
119
120
123
117
118
123
118
118
123
118
118
123
113
114
118
103
106
108
98
99
101
93
94
97
92
93
95
92
93
95
95
96
97
97
98
100
96
97
100
94
93
96
90
91
93
90
91
93
91
92
94
88
88
92
87
88
91
86
86
89
86
87
89
86
87
89
84
85
87
82
83
86
85
85
88
88
88
91
92
92
94
92
92
94
86
88
90
71
74
75
63
63
65
56
56
58
21
22
22
21
22
22
0
0
0
0
0
0
0
0
0
0
0
0
0
0
0
0
0
0
0
0
0
0
0
0
0
0
0
0
0
0
0
0
0
0
0
0
0
0
0
0
0
0
33
33
33
105
105
108
119
120
123
117
118
123
118
118
123
118
118
123
113
114
118
103
106
108
98
99
101
93
94
97
92
93
95
92
93
95
95
96
97
97
98
100
96
97
100
94
93
96
90
91
93
90
91
93
91
92
94
88
88
92
87
88
91
86
86
89
86
87
89
86
87
89
84
85
87
82
83
86
85
85
88
88
88
91
92
92
94
92
92
94
86
88
90
71
74
75
63
63
65
56
56
58
21
22
22
21
22
22
0
0
0
0
0
0
0
0
0
0
0
0
0
0
0
0
0
0
15
15
14
15
15
14
0
0
0
0
0
0
0
0
0
0
0
0
0
0
0
0
0
0
4
4
4
75
75
78
122
123
127
124
124
131
117
119
123
117
119
123
109
110
115
102
104
105
97
98
100
96
97
101
99
100
101
99
100
101
101
103
103
104
105
107
101
102
104
95
94
98
93
95
97
93
95
97
88
90
93
85
85
88
85
87
88
85
84
89
86
85
87
86
85
87
86
86
87
85
85
88
85
85
89
89
90
94
72
72
73
72
72
73
34
35
35
16
16
16
12
12
12
5
5
5
0
0
0
0
0
0
0
0
0
0
0
0
0
0
0
0
0
0
0
0
0
0
0
0
20
20
19
20
20
19
0
0
0
0
0
0
0
0
0
0
0
0
0
0
0
0
0
0
0
0
0
32
32
33
114
115
120
128
129
134
116
118
122
116
118
122
107
109
115
100
101
105
96
98
101
99
100
103
104
106
109
104
106
109
104
107
110
104
105
107
103
104
106
98
99
103
95
97
98
95
97
98
91
91
93
88
87
91
86
86
90
85
87
91
84
85
89
84
85
89
81
81
85
83
85
88
89
91
95
62
64
65
16
16
16
16
16
16
0
0
0
0
0
0
0
0
0
0
0
0
0
0
0
0
0
0
0
0
0
0
0
0
0
0
0
0
0
0
0
0
0
0
0
0
3
3
2
3
3
2
0
0
0
0
0
0
0
0
0
0
0
0
0
0
0
0
0
0
0
0
0
2
2
1
65
65
68
124
125
130
126
129
133
126
129
133
112
114
119
105
105
112
103
105
108
103
104
108
105
107
111
105
107
111
108
109
115
104
106
110
103
104
105
104
105
106
98
101
102
98
101
102
95
96
101
92
92
95
88
89
91
84
86
90
81
81
86
81
81
86
83
83
87
91
92
95
68
69
70
12
12
13
0
0
0
0
0
0
0
0
0
0
0
0
0
0
0
0
0
0
0
0
0
0
0
0
0
0
0
0
0
0
0
0
0
0
0
0
0
0
0
0
0
0
0
0
0
0
0
0
0
0
0
0
0
0
0
0
0
0
0
0
0
0
0
0
0
0
0
0
0
0
0
0
6
6
6
64
66
66
120
122
124
120
122
124
118
120
124
107
109
113
104
105
110
109
109
113
112
114
117
112
114
117
113
114
118
106
109
112
104
105
107
105
104
106
97
97
101
97
97
101
94
97
100
97
97
100
92
91
97
83
84
88
78
79
81
78
79
81
75
76
77
60
61
63
23
23
24
0
0
0
0
0
0
0
0
0
0
0
0
0
0
0
0
0
0
0
0
0
0
0
0
0
0
0
0
0
0
0
0
0
0
0
0
0
0
0
0
0
0
0
0
0
0
0
0
0
0
0
0
0
0
0
0
0
0
0
0
0
0
0
0
0
0
0
0
0
0
0
0
0
0
0
0
0
0
4
3
3
52
51
52
52
51
52
109
109
111
114
115
120
109
112
114
113
115
117
116
117
119
116
117
119
115
115
119
110
113
117
104
106
111
103
102
106
103
104
107
103
104
107
100
100
103
101
101
105
95
95
100
69
70
73
40
39
40
40
39
40
16
17
16
6
6
6
0
0
1
0
0
0
0
0
0
0
0
0
0
0
0
0
0
0
0
0
0
0
0
0
0
0
0
0
0
0
0
0
0
0
0
0
0
0
0
0
0
0
0
0
0
0
0
0
0
0
0
0
0
0
0
0
0
0
0
0
0
0
0
0
0
0
0
0
0
0
0
0
0
0
0
0
0
0
0
0
0
0
0
0
0
0
0
0
0
0
39
39
39
99
100
104
121
121
126
119
119
122
118
117
122
118
117
122
115
116
120
110
112
116
107
109
113
103
104
107
105
105
107
105
105
107
108
108
113
104
104
107
67
66
69
16
16
14
1
0
0
1
0
0
0
0
0
0
0
0
0
0
0
0
0
0
0
0
0
0
0
0
0
0
0
0
0
0
0
0
0
0
0
0
0
0
0
0
0
0
0
0
0
0
0
0
0
0
0
0
0
0
0
0
0
0
0
0
0
0
0
0
0
0
0
0
0
0
0
0
0
0
0
0
0
0
0
0
0
0
0
0
0
0
0
0
0
0
0
0
0
0
0
0
0
0
0
0
0
0
39
39
39
99
100
104
121
121
126
119
119
122
118
117
122
118
117
122
115
116
120
110
112
116
107
109
113
103
104
107
105
105
107
105
105
107
108
108
113
104
104
107
67
66
69
16
16
14
1
0
0
1
0
0
0
0
0
0
0
0
0
0
0
0
0
0
0
0
0
0
0
0
0
0
0
0
0
0
0
0
0
0
0
0
0
0
0
0
0
0
0
0
0
0
0
0
0
0
0
0
0
0
0
0
0
0
0
0
0
0
0
0
0
0
0
0
0
0
0
0
0
0
0
0
0
0
0
0
0
0
0
0
0
0
0
0
0
0
0
0
0
0
0
0
0
0
0
0
0
0
0
0
0
31
31
33
87
87
91
104
105
106
107
108
111
107
108
111
109
110
113
111
114
116
111
114
118
111
111
115
115
115
120
115
115
120
106
107
112
60
61
62
10
10
9
0
0
0
0
0
0
0
0
0
0
0
0
0
0
0
0
0
0
0
0
0
0
0
0
0
0
0
0
0
0
0
0
0
0
0
0
0
0
0
0
0
0
0
0
0
0
0
0
0
0
0
0
0
0
0
0
0
0
0
0
0
0
0
0
0
0
0
0
0
0
0
0
0
0
0
0
0
0
0
0
0
0
0
0
0
0
0
0
0
0
0
0
0
0
0
0
0
0
0
0
0
0
0
0
0
0
0
0
0
0
0
9
10
10
22
22
21
31
30
31
31
30
31
48
48
50
71
73
75
83
85
88
83
83
86
77
79
81
77
79
81
47
48
49
5
5
5
0
0
0
0
0
0
0
0
0
0
0
0
0
0
0
0
0
0
0
0
0
0
0
0
0
0
0
0
0
0
0
0
0
0
0
0
0
0
0
0
0
0
0
0
0
0
0
0
0
0
0
0
0
0
0
0
0
0
0
0
0
0
0
0
0
0
0
0
0
0
0
0
0
0
0
0
0
0
0
0
0
0
0
0
0
0
0
0
0
0
0
0
0
0
0
0
0
0
0
0
0
0
0
0
0
0
0
0
0
0
0
0
0
0
0
0
0
0
0
0
0
0
0
0
0
0
0
0
0
3
3
3
9
9
9
6
6
6
3
2
2
3
2
2
0
0
0
0
0
0
0
0
0
0
0
0
0
0
0
0
0
0
0
0
0
0
0
0
0
0
0
0
0
0
0
0
0
0
0
0
0
0
0
0
0
0
0
0
0
0
0
0
0
0
0
0
0
0
0
0
0
0
0
0
0
0
0
0
0
0
0
0
0
0
0
0
0
0
0
0
0
0
0
0
0
0
0
0
0
0
0
0
0
0
0
0
0
0
0
0
0
0
0
0
0
0
0
0
0
0
0
0
0
0
0
0
0
0
0
0
0
0
0
0
0
0
0
0
0
0
0
0
0
0
0
0
0
0
0
0
0
0
0
0
0
0
0
0
0
0
0
0
0
0
0
0
0
0
0
0
0
0
0
0
0
0
0
0
0
0
0
0
0
0
0
0
0
0
0
0
0
0
0
0
0
0
0
0
0
0
0
0
0
0
0
0
0
0
0
0
0
0
0
0
0
0
0
0
0
0
0
0
0
0
0
0
0
0
0
0
0
0
0
0
0
0
0
0
0
0
0
0
0
0
0
0
0
0
0
0
0
0
0
0
0
0
0
0
0
0
0
0
0
0
0
0
0
0
0
0
0
0
0
0
0
0
0
0
0
0
0
0
0
0
0
0
0
0
0
0
0
0
0
0
0
0
0
0
0
0
0
0
0
0
0
0
0
0
0
0
0
0
0
0
0
0
0
0
0
0
0
0
0
0
0
0
0
0
0
0
0
0
0
0
0
0
0
0
0
0
0
0
0
0
0
0
0
0
0
0
0
0
0
0
0
0
0
0
0
0
0
0
0
0
0
0
0
0
0
0
0
0
0
0
0
0
0
0
0
0
0
0
0
0
0
0
0
0
0
0
0
0
0
0
0
0
0
0
0
0
0
0
0
0
0
0
0
0
0
0
0
0
0
0
0
0
0
0
0
0
0
0
0
0
0
0
0
0
0
0
0
0
0
0
0
0
0
0
0
0
0
0
0
0
0
0
0
0
0
0
0
0
0
0
0
0
0
0
0
0
0
0
0
0
0
0
0
0
0
0
0
0
0
0
0
0
0
0
0
0
0
0
0
0
0
0
0
0
0
0
0
0
0
0
0
0
0
0
0
0
0
0
0
0
0
0
0
0
0
0
0
0
0
0
0
0
0
0
0
0
0
0
0
0
0
0
0
0
0
0
0
0
0
0
0
0
